<svg width="109" height="24" viewBox="0 0 109 24" fill="none" xmlns="http://www.w3.org/2000/svg">
<path d="M2 6H0V11H0.01L0 20C0 21.1 0.9 22 2 22H20V20H2V6ZM22 4H14L12 2H6C4.9 2 4.01 2.9 4.01 4L4 16C4 17.1 4.9 18 6 18H22C23.1 18 24 17.1 24 16V6C24 4.9 23.1 4 22 4ZM7 15L11.5 9L15 13.51L17.5 10.5L21 15H7Z" fill="#004AA2"/>
<path d="M38.12 19L37.84 18.16L38.12 16.76V9.088H45.33L46.03 9.508L45.106 11.888L43.846 11.748H41.228V12.868H44.686V15.178H42.754L41.228 15.038V16.34H45.106L46.772 18.104L45.946 19H38.12ZM47.6154 19V14.786L47.3354 13.246L47.7694 12.392H50.4154V12.994L50.5414 13.078C50.6441 12.9847 50.7841 12.8773 50.9614 12.756C51.1481 12.6253 51.3721 12.5087 51.6334 12.406C51.8947 12.3033 52.1887 12.252 52.5154 12.252C53.2807 12.252 53.8454 12.49 54.2094 12.966C54.5734 13.442 54.7554 14.1093 54.7554 14.968V16.76L55.0354 18.16L54.7554 19H51.6614V15.458C51.6614 15.178 51.5961 14.9727 51.4654 14.842C51.3441 14.702 51.1341 14.632 50.8354 14.632L50.6954 14.772V19H47.6154ZM59.169 22.402C59.0197 22.402 58.8237 22.3973 58.581 22.388C58.3477 22.388 58.119 22.3787 57.895 22.36C57.671 22.3507 57.4937 22.3413 57.363 22.332L55.655 21.506L56.355 19.266L58.833 19.98C59.337 19.98 59.6777 19.8773 59.855 19.672C60.0417 19.476 60.135 19.2007 60.135 18.846V18.58L59.995 18.51C59.8643 18.6407 59.6823 18.776 59.449 18.916C59.225 19.0467 58.847 19.112 58.315 19.112C57.8763 19.112 57.4517 19.0047 57.041 18.79C56.6303 18.566 56.2943 18.2113 56.033 17.726C55.781 17.2407 55.655 16.6107 55.655 15.836C55.655 14.968 55.7857 14.2727 56.047 13.75C56.3083 13.218 56.6397 12.8307 57.041 12.588C57.4517 12.3453 57.8763 12.224 58.315 12.224C58.6977 12.224 59.0243 12.294 59.295 12.434C59.5657 12.574 59.7523 12.7093 59.855 12.84V12.378H62.949L63.089 13.218L62.935 14.058L62.949 18.986C62.949 19.7887 62.7903 20.442 62.473 20.946C62.165 21.45 61.7263 21.8187 61.157 22.052C60.597 22.2853 59.9343 22.402 59.169 22.402ZM59.645 16.816C59.6823 16.816 59.715 16.816 59.743 16.816C59.7803 16.816 59.8177 16.8113 59.855 16.802V14.744C59.8363 14.716 59.7943 14.688 59.729 14.66C59.673 14.632 59.5937 14.618 59.491 14.618C59.3043 14.618 59.1317 14.688 58.973 14.828C58.8143 14.968 58.735 15.2527 58.735 15.682C58.735 16.0833 58.8283 16.3727 59.015 16.55C59.2017 16.718 59.4117 16.8067 59.645 16.816ZM66.1665 19.14C65.5412 19.14 65.0325 18.9953 64.6405 18.706C64.2578 18.4073 64.0665 17.8893 64.0665 17.152C64.0665 16.4707 64.2905 15.9573 64.7385 15.612C65.1958 15.2573 65.8118 15.08 66.5865 15.08C67.0065 15.08 67.3425 15.122 67.5945 15.206C67.8465 15.2807 68.0378 15.3553 68.1685 15.43L68.2665 15.36C68.2665 15.0707 68.2152 14.856 68.1125 14.716C68.0098 14.5667 67.7625 14.492 67.3705 14.492C67.0252 14.492 66.6705 14.5293 66.3065 14.604C65.9518 14.6693 65.6158 14.758 65.2985 14.87C64.9812 14.9727 64.7105 15.0847 64.4865 15.206V12.686C64.6358 12.6393 64.8738 12.5833 65.2005 12.518C65.5272 12.4527 65.9192 12.3967 66.3765 12.35C66.8338 12.294 67.3238 12.266 67.8465 12.266C68.7238 12.266 69.4192 12.3733 69.9325 12.588C70.4458 12.7933 70.8098 13.0967 71.0245 13.498C71.2485 13.89 71.3605 14.3613 71.3605 14.912V16.774L71.6405 18.188L71.3605 19.014H68.4065V18.328L68.2665 18.258C68.1172 18.4727 67.8605 18.6733 67.4965 18.86C67.1418 19.0467 66.6985 19.14 66.1665 19.14ZM67.7485 17.306C67.8885 17.306 68.0052 17.2827 68.0985 17.236C68.1918 17.1893 68.2478 17.1613 68.2665 17.152V16.844C68.2665 16.704 68.2245 16.5827 68.1405 16.48C68.0565 16.3773 67.9305 16.326 67.7625 16.326C67.6132 16.326 67.4732 16.368 67.3425 16.452C67.2118 16.5267 67.1465 16.662 67.1465 16.858C67.1465 17.1567 67.3472 17.306 67.7485 17.306ZM75.7667 22.402C75.6173 22.402 75.4213 22.3973 75.1787 22.388C74.9453 22.388 74.7167 22.3787 74.4927 22.36C74.2687 22.3507 74.0913 22.3413 73.9607 22.332L72.2527 21.506L72.9527 19.266L75.4307 19.98C75.9347 19.98 76.2753 19.8773 76.4527 19.672C76.6393 19.476 76.7327 19.2007 76.7327 18.846V18.58L76.5927 18.51C76.462 18.6407 76.28 18.776 76.0467 18.916C75.8227 19.0467 75.4447 19.112 74.9127 19.112C74.474 19.112 74.0493 19.0047 73.6387 18.79C73.228 18.566 72.892 18.2113 72.6307 17.726C72.3787 17.2407 72.2527 16.6107 72.2527 15.836C72.2527 14.968 72.3833 14.2727 72.6447 13.75C72.906 13.218 73.2373 12.8307 73.6387 12.588C74.0493 12.3453 74.474 12.224 74.9127 12.224C75.2953 12.224 75.622 12.294 75.8927 12.434C76.1633 12.574 76.35 12.7093 76.4527 12.84V12.378H79.5467L79.6867 13.218L79.5327 14.058L79.5467 18.986C79.5467 19.7887 79.388 20.442 79.0707 20.946C78.7627 21.45 78.324 21.8187 77.7547 22.052C77.1947 22.2853 76.532 22.402 75.7667 22.402ZM76.2427 16.816C76.28 16.816 76.3127 16.816 76.3407 16.816C76.378 16.816 76.4153 16.8113 76.4527 16.802V14.744C76.434 14.716 76.392 14.688 76.3267 14.66C76.2707 14.632 76.1913 14.618 76.0887 14.618C75.902 14.618 75.7293 14.688 75.5707 14.828C75.412 14.968 75.3327 15.2527 75.3327 15.682C75.3327 16.0833 75.426 16.3727 75.6127 16.55C75.7993 16.718 76.0093 16.8067 76.2427 16.816ZM81.3641 19L81.0841 18.16L81.3641 16.76V9.088H88.5741L89.2741 9.508L88.3501 11.888L87.0901 11.748H84.4721V12.868H87.9301V15.178H85.9981L84.4721 15.038V16.34H88.3501L90.0161 18.104L89.1901 19H81.3641ZM91.1395 19V11.342L90.8595 9.942L91.1395 9.088H95.8855C96.5482 9.088 97.1875 9.15333 97.8035 9.284C98.4289 9.40533 98.9842 9.63867 99.4695 9.984C99.9642 10.3293 100.356 10.824 100.646 11.468C100.935 12.112 101.08 12.9473 101.08 13.974C101.08 15.0007 100.93 15.8453 100.632 16.508C100.342 17.1613 99.9502 17.67 99.4555 18.034C98.9609 18.398 98.4055 18.65 97.7895 18.79C97.1735 18.93 96.5389 19 95.8855 19H91.1395ZM94.2475 16.34H95.3115C95.8622 16.34 96.3242 16.2793 96.6975 16.158C97.0802 16.0367 97.3695 15.808 97.5655 15.472C97.7615 15.1267 97.8595 14.6273 97.8595 13.974C97.8595 13.3113 97.7569 12.826 97.5515 12.518C97.3555 12.2007 97.0662 11.9953 96.6835 11.902C96.3102 11.7993 95.8529 11.748 95.3115 11.748H94.2475V16.34Z" fill="#1D2F53"/>
</svg>
